<?xml version="1.0" encoding="utf-8"?>
<!-- Generator: Adobe Illustrator 19.2.1, SVG Export Plug-In . SVG Version: 6.00 Build 0)  -->
<svg version="1.1" id="layer" xmlns="http://www.w3.org/2000/svg" xmlns:xlink="http://www.w3.org/1999/xlink" x="0px" y="0px"
	 viewBox="0 0 652 652" style="enable-background:new 0 0 652 652;" xml:space="preserve">
<style type="text/css">
	.st0{fill:#AE1B1F;}
	.st1{fill:#6E9A43;}
</style>
<rect x="280.4" y="203.3" width="11.4" height="169.8"/>
<rect x="259.9" y="203.3" width="11.4" height="169.8"/>
<rect x="238.7" y="203.3" width="11.4" height="169.8"/>
<rect x="212.1" y="203.3" width="7.6" height="169.8"/>
<g>
	<path d="M183.9,235.1v-31.8h-11.4v20.2C176.7,226.9,180.5,230.8,183.9,235.1"/>
	<path d="M172.5,352.9v20.2h11.4v-31.8C180.5,345.5,176.7,349.4,172.5,352.9"/>
	<path d="M129.1,203.3h-7.6v0.5c2.6,0.1,5.1,0.3,7.6,0.6V203.3z"/>
	<path d="M121.5,373.1h7.6v-1.1c-2.5,0.3-5,0.5-7.6,0.6V373.1z"/>
	<path d="M197.2,258.3c3.5,9.3,5.5,19.3,5.5,29.8c0,10.5-2,20.6-5.5,29.8v55.1h7.6V203.3h-7.6V258.3z"/>
	<path d="M146.9,203.3h-7.6v3.1c2.6,0.7,5.1,1.4,7.6,2.3V203.3z"/>
	<path d="M139.3,373.1h7.6v-5.5c-2.5,0.9-5,1.7-7.6,2.3V373.1z"/>
	<path d="M161,203.3h-7.6v8.1c2.6,1.2,5.1,2.5,7.6,4V203.3z"/>
	<path d="M153.4,373.1h7.6V361c-2.5,1.4-5,2.8-7.6,4V373.1z"/>
	<path class="st0" d="M172.5,223.4v129.5c4.2-3.5,8-7.4,11.4-11.6V235.1C180.5,230.8,176.7,226.9,172.5,223.4"/>
	<path class="st0" d="M121.5,203.8v168.8c2.6-0.1,5.1-0.3,7.6-0.6V204.4C126.6,204.1,124.1,203.9,121.5,203.8"/>
	<path class="st0" d="M197.2,258.3V318c3.5-9.3,5.5-19.3,5.5-29.8C202.7,277.6,200.7,267.6,197.2,258.3"/>
	<path class="st0" d="M139.3,206.4v163.6c2.6-0.7,5.1-1.5,7.6-2.4V208.7C144.4,207.8,141.9,207,139.3,206.4"/>
	<path class="st0" d="M153.4,211.4V365c2.6-1.2,5.1-2.5,7.6-4V215.3C158.5,213.9,156,212.6,153.4,211.4"/>
	<path class="st0" d="M114.3,203.6c-46.7,0-84.6,37.9-84.6,84.6c0,46.7,37.9,84.6,84.6,84.6V203.6z"/>
	<path class="st1" d="M32.9,229.9c4.6,9.2,5.7,18.3,14.3,25.1c12.2,9.6,27,6.4,41.6,4.6c11.3-1.4,10.4-1.3,17.4,7.1
		c0.9,0,2.1-1,1.5-1.8c-13.3-16.3-0.1-35.9-13.8-51.1c-6.8-7.5-22.3-11.8-32.1-10.1c-10.1,1.8-26.3,17.3-36,11.6L32.9,229.9z"/>
	<path d="M359.6,203.8c13.1,0,23.8,10.4,23.8,23.7c0,13.4-10.7,23.7-23.8,23.7c-13.1,0-23.8-10.4-23.8-23.7
		C335.8,214.2,346.5,203.8,359.6,203.8 M359.6,245.3c9.5,0,17.3-8.3,17.3-17.8c0-9.5-7.8-17.8-17.3-17.8c-9.5,0-17.3,8.3-17.3,17.8
		C342.3,237,350.1,245.3,359.6,245.3"/>
	<path d="M389.3,251.3v-34.5l5.9-1.1v7.2h0.1c1.9-4.2,5.2-7.3,10.3-7.3h3.2l-2.6,6.3c-5.7-0.3-10.6,3.8-10.6,12.5v15.8L389.3,251.3z
		"/>
	<path d="M413.4,250.8c2.4,3.8,5.1,6,9.7,6c4.8,0,8.9-2.8,8.9-7.5c0-5.9-4.4-8.5-8.9-8.5c-3.3,0-5.7,1-8.1,2.4l1.2-4.7
		c-5.2-1.7-7.3-5.9-7.3-11c0-7.9,6.8-11.6,12.4-11.8c5-0.3,7.3-0.3,9.6-0.7c2.2-0.4,4.5-1.2,7.5-2.3l-1.5,6.2l-4,1
		c2.8,1.8,4.2,4.4,4.2,8.1c0,4.6-2.6,8.2-6.9,9.7v0.1c5.1,1.8,8.2,5.7,8.2,11.2c0,8.8-7.5,13.3-15.3,13.3c-6.5,0-10.8-2.9-14.4-7.9
		L413.4,250.8z M430.8,228c0-4.5-3.4-6.9-7.7-6.9c-4.1,0-7.9,2.3-7.9,6.9c0,4.5,2.8,7.5,7.9,7.5C427.3,235.5,430.8,232.6,430.8,228"
		/>
	<path d="M463.8,251.3v-4.6h-0.1c-1.9,3.8-5.9,4.6-9.9,4.6c-7.5,0-12.4-5.6-12.4-13c0-7.4,6.5-11.8,13.4-11.8c3.2,0,6.3,0.9,8.5,3.2
		v-2.6c0-5-3-5.4-7.9-5.4c-2.8,0-6.3,0.2-9.8,1.9l1.7-6.5c2.3-0.5,6-1.3,9.1-1.3c9,0,13.2,3.6,13.2,12.6v22L463.8,251.3z
		 M447.7,238.3c0,4.7,2.7,7.1,7.3,7.1c4.4,0,8.2-1.7,8.2-7.1c0-4.2-3.8-6.2-7.7-6.2C451.6,232,447.7,233.9,447.7,238.3"/>
	<path d="M476.6,251.3v-34.5l6.3-1.1v5h0.1c1.9-3.4,6-5,9.9-5c6.8,0,13.2,3.2,13.2,11.6v22.9l-6.3,1.1v-23.4c0-5-3.5-6.5-7.4-6.5
		c-5,0-9.5,3-9.5,10.3v18.6L476.6,251.3z"/>
	<polygon points="513.6,251.3 513.6,216.8 520,215.7 520,250.2 	"/>
	<path d="M551,224.8c-2.8-2.1-4.7-3.1-8.5-3.1c-6.4,0-10.8,5.8-10.8,11.9c0,6,5.1,11.8,10.9,11.8c3.6,0,5.9-1.7,8.3-4l4.1,4.2
		c-3.4,3.5-7.6,5.8-12.6,5.8c-8.9,0-17.1-7.7-17.1-17.5c0-9.9,7-18.1,17.1-18.1c4.6,0,8.9,1.7,12.4,4.7L551,224.8z"/>
	<path d="M520.7,207.8c0,2.1-1.7,3.9-3.9,3.9c-2.2,0-3.9-1.7-3.9-3.9c0-2.2,1.7-3.9,3.9-3.9C518.9,203.9,520.7,205.6,520.7,207.8"/>
	<path d="M338.1,310.1V264h12.2c9.3,0,15.3,5.6,15.3,13.4c0,11.1-7.8,14.7-17.6,14.7h-3.5v17.3L338.1,310.1z M344.6,286.1h5
		c6.2,0,9.6-2.3,9.6-8.7c0-5.6-4.6-7.4-9.6-7.4h-5V286.1z"/>
	<path d="M369.5,310.4v-34.5l6-1.1v7.2h0.1c1.9-4.2,5.2-7.3,10.3-7.3h3.2l-2.6,6.3c-5.7-0.3-10.6,3.8-10.6,12.5v15.8L369.5,310.4z"
		/>
	<path d="M424.1,292.6c0,10-8.3,17.8-18.3,17.8c-9.9,0-18.2-7.7-18.2-17.8c0-10.1,8.3-17.8,18.2-17.8
		C415.8,274.8,424.1,282.5,424.1,292.6 M405.9,280.8c-6.6,0-11.8,5.4-11.8,11.8c0,6.5,5.2,11.8,11.8,11.8c6.7,0,11.9-5.4,11.9-11.8
		C417.8,286.1,412.6,280.8,405.9,280.8"/>
	<path d="M453.2,283.9c-2.8-2.1-4.7-3.1-8.5-3.1c-6.4,0-10.8,5.8-10.8,11.9c0,6,5.1,11.8,10.9,11.8c3.6,0,6-1.7,8.3-4l4.1,4.2
		c-3.4,3.5-7.6,5.8-12.6,5.8c-8.9,0-17.1-7.7-17.1-17.5s7-18.1,17.1-18.1c4.6,0,8.9,1.7,12.4,4.7L453.2,283.9z"/>
	<path d="M467.3,299c2.1,3.4,5.2,5.4,9.2,5.4c4.6,0,9-3.1,12.4-5.8l1.3,6.7c-4.2,2.9-8.1,5.1-13.3,5.1c-10.8,0-17.8-8.1-17.8-18.7
		c0-9.1,7.8-16.9,16.7-16.9c7.1,0,11.4,3.2,15,9.2L467.3,299z M482.1,282.9c-1.5-1.7-3.6-2.2-5.8-2.2c-7.2,0-11.6,5.8-10.8,12.8
		L482.1,282.9z"/>
	<path d="M498.3,301.1c1.9,2.3,3.8,3.7,7,3.7c2.5,0,5.6-1.3,5.6-4.2c0-8.7-16.5-2.6-16.5-15.1c0-6.2,4.8-10.6,10.8-10.6
		c4.7,0,7.5,1.4,10.8,4.7l-3.8,4.2c-2-2-3.5-3.2-6.4-3.2c-2.7,0-5.2,0.9-5.2,4.1c0,7.5,16.5,1.9,16.5,15.2c0,6.5-5.4,10.6-11.6,10.6
		c-5,0-8.7-1.7-11.8-5.6L498.3,301.1z"/>
	<path d="M524,301.1c1.9,2.3,3.8,3.7,7,3.7c2.5,0,5.6-1.3,5.6-4.2c0-8.7-16.5-2.6-16.5-15.1c0-6.2,4.8-10.6,10.8-10.6
		c4.7,0,7.5,1.4,10.8,4.7l-3.8,4.2c-2-2-3.5-3.2-6.4-3.2c-2.7,0-5.2,0.9-5.2,4.1c0,7.5,16.5,1.9,16.5,15.2c0,6.5-5.4,10.6-11.6,10.6
		c-5,0-8.7-1.7-11.8-5.6L524,301.1z"/>
	<polygon points="548.2,310.4 548.2,275.9 554.6,274.8 554.6,309.3 	"/>
	<path d="M562.1,310.4v-34.5l6.3-1.1v5h0.1c1.9-3.4,6-5,9.9-5c6.8,0,13.2,3.2,13.2,11.6v22.9l-6.3,1.1V287c0-5-3.5-6.6-7.4-6.6
		c-5,0-9.5,3-9.5,10.3v18.6L562.1,310.4z"/>
	<path d="M600.9,309.9c2.4,3.8,5.1,6,9.7,6c4.8,0,8.9-2.8,8.9-7.5c0-5.9-4.4-8.5-8.9-8.5c-3.3,0-5.8,1-8.1,2.5l1.2-4.7
		c-5.2-1.7-7.3-5.9-7.3-11c0-7.9,6.8-11.6,12.4-11.8c5-0.3,7.3-0.3,9.6-0.7c2.3-0.4,4.5-1.2,7.5-2.2l-1.5,6.2l-4,1
		c2.8,1.8,4.2,4.4,4.2,8.1c0,4.6-2.6,8.2-6.9,9.7v0.1c5.1,1.8,8.2,5.8,8.2,11.2c0,8.8-7.5,13.3-15.3,13.3c-6.5,0-10.8-2.9-14.4-7.9
		L600.9,309.9z M618.3,287.1c0-4.5-3.4-6.9-7.7-6.9c-4.1,0-7.9,2.3-7.9,6.9c0,4.5,2.8,7.5,7.9,7.5
		C614.8,294.6,618.3,291.7,618.3,287.1"/>
	<path d="M555.3,267.2c0,2.1-1.7,3.9-3.9,3.9s-3.9-1.7-3.9-3.9c0-2.1,1.7-3.9,3.9-3.9S555.3,265.1,555.3,267.2"/>
	<polygon points="338,372.7 338,326.8 344.4,325.7 344.4,372.2 	"/>
	<path d="M352.2,373.2v-34.5l6.3-1.1v5h0.1c1.9-3.4,6-5,9.9-5c6.8,0,13.2,3.2,13.2,11.6v22.9l-6.3,1.1v-23.4c0-5-3.5-6.6-7.4-6.6
		c-5,0-9.5,3-9.5,10.3v18.6L352.2,373.2z"/>
	<path d="M390.9,363.9c1.9,2.2,3.8,3.7,7,3.7c2.5,0,5.6-1.3,5.6-4.2c0-8.7-16.5-2.6-16.5-15.1c0-6.2,4.8-10.6,10.8-10.6
		c4.7,0,7.5,1.4,10.8,4.7l-3.8,4.2c-2-2.1-3.5-3.2-6.4-3.2c-2.7,0-5.2,0.9-5.2,4.1c0,7.5,16.5,1.9,16.5,15.2
		c0,6.5-5.4,10.6-11.6,10.6c-5,0-8.7-1.7-11.8-5.6L390.9,363.9z"/>
	<path d="M431.9,344.3H423v17.7c0,4.2,1.3,5.6,6,5.6c1.4,0,2.8-0.3,4.2-0.4L432,373c-1.3,0.1-2.4,0.3-5.1,0.3
		c-5.9,0-10.3-4.2-10.3-10.2v-18.7h-5.2l2.3-5.6h3v-8.2l6.3-1.5v9.7h8.9V344.3z"/>
	<polygon points="436.6,373.2 436.6,338.7 442.9,337.7 442.9,372.2 	"/>
	<path d="M467.2,344.3h-8.9v17.7c0,4.2,1.3,5.6,6,5.6c1.5,0,2.8-0.3,4.2-0.4l-1.1,5.8c-1.3,0.1-2.4,0.3-5.1,0.3
		c-5.9,0-10.3-4.2-10.3-10.2v-18.7h-5.2l2.2-5.6h3v-8.2l6.3-1.5v9.7h8.9V344.3z"/>
	<path d="M500.8,337.6v34.5l-6.2,1.1v-5h-0.1c-2,3.4-6.1,5-10.1,5c-6.8,0-13.2-3.2-13.2-11.2v-23.3l6.3-1.1v23.4
		c0,5,3.5,6.5,7.4,6.5c5,0,9.5-3,9.5-10.3v-18.6L500.8,337.6z"/>
	<path d="M525,344.3H516v17.7c0,4.2,1.3,5.6,6,5.6c1.5,0,2.8-0.3,4.2-0.4l-1.1,5.8c-1.3,0.1-2.4,0.3-5.1,0.3
		c-5.9,0-10.3-4.2-10.3-10.2v-18.7h-5.2l2.2-5.6h3v-8.2l6.3-1.5v9.7h8.9V344.3z"/>
	<path d="M535.1,361.9c2.1,3.4,5.2,5.4,9.2,5.4c4.6,0,9-3.1,12.4-5.8l1.3,6.7c-4.2,2.9-8.1,5.1-13.3,5.1c-10.8,0-17.8-8.1-17.8-18.7
		c0-9.1,7.8-16.9,16.7-16.9c7.1,0,11.4,3.2,15,9.2L535.1,361.9z M549.9,345.8c-1.5-1.7-3.6-2.2-5.8-2.2c-7.2,0-11.6,5.8-10.8,12.8
		L549.9,345.8z"/>
	<path d="M443.7,329.4c0,2.1-1.7,3.9-3.9,3.9s-3.9-1.7-3.9-3.9c0-2.2,1.7-3.9,3.9-3.9S443.7,327.3,443.7,329.4"/>
	<rect x="50.7" y="407.8" class="st1" width="573.1" height="4.2"/>
	<path class="st1" d="M71.7,447.4c-0.9,0.5-2.6,0.8-3.6,0.8c-6.8,0-11.3-5.1-11.3-11.5c0-6.4,4.6-11.5,11.2-11.5
		c1.1,0,2.7,0.3,3.6,0.8l0.7,5.1c-1.2-0.9-2.6-1.6-4.5-1.6c-3.9,0-6.6,3.5-6.6,7.2c0,4.1,3.1,7.2,6.8,7.2c1.8,0,3.1-0.9,4.3-1.8
		L71.7,447.4z"/>
	<path class="st1" d="M97.5,425.2v15.9c0,4-3,7.2-8,7.2c-3.8,0-7.7-2.1-7.7-7.8v-14.8l4.2-0.5v14.7c0,1.9,0.3,4.3,3.7,4.3
		c3,0,3.5-2,3.5-4.6v-13.8L97.5,425.2z"/>
	<polygon class="st1" points="108.2,447.8 108.2,425.7 112.4,425.2 112.4,443.7 120.4,443.7 119.4,447.8 	"/>
	<polygon class="st1" points="125.5,425.7 140.2,425.7 140.2,429.8 134.7,429.8 134.7,447.8 130.5,448 130.5,429.8 124.5,429.8 	"/>
	<polygon class="st1" points="148.7,448 148.7,425.7 153,425.2 153,447.8 	"/>
	<polygon class="st1" points="170.4,439.1 175.8,425.2 180.1,425.8 170.5,448.3 170.4,448.3 161,425.8 165.5,425.2 	"/>
	<path class="st1" d="M183.3,447.6l11.1-22.4h0.1l11.5,22.4l-4.5,0.7l-2.6-5.6h-8.4l-2.6,5.6L183.3,447.6z M192,439h4.9l-2.5-6
		L192,439z"/>
	<polygon class="st1" points="210.7,425.7 225.4,425.7 225.4,429.8 219.9,429.8 219.9,447.8 215.7,448 215.7,429.8 209.7,429.8 	"/>
	<polygon class="st1" points="234,448 234,425.7 238.2,425.2 238.2,447.8 	"/>
	<polygon class="st1" points="249,448.3 249,425.2 249.1,425.2 262.2,438.6 262.2,425.7 266.5,425.2 266.5,448.3 266.4,448.3 
		253.2,435.1 253.2,447.8 	"/>
	<path class="st1" d="M296.5,445c-1.4,1.6-5.7,3.3-9,3.3c-6.4,0-11.6-5-11.6-11.6c0-6.6,5.6-11.5,11.6-11.5c3.8,0,6.5,1.4,8.7,3.3
		l-2.6,3.3c-1.9-1.4-3.3-2.6-6.2-2.6c-4,0-7.1,3.5-7.1,7.7c0,4.4,3.8,7.2,7.2,7.2c1.6,0,3.5-0.7,4.7-1.5v-3.8h-6.4l1.4-4.1h9.3V445z
		"/>
	<path class="st1" d="M332.3,425.2c6.3,0,11.6,5.1,11.6,11.5c0,6.4-5.3,11.5-11.6,11.5c-6.4,0-11.6-5.1-11.6-11.5
		C320.7,430.4,325.9,425.2,332.3,425.2 M332.3,443.9c3.9,0,7.2-3.3,7.2-7.2c0-3.9-3.3-7.2-7.2-7.2c-3.9,0-7.2,3.3-7.2,7.2
		C325.1,440.7,328.4,443.9,332.3,443.9"/>
	<path class="st1" d="M357.6,447.8l-4.2,0.3v-22.3h6.3c5,0,7.1,4.1,7.1,6.9c0,4.5-3.1,7.2-7.5,7.2c-0.6,0-1.1,0-1.7-0.1V447.8z
		 M357.6,435.9h1c2.5,0,3.9-0.9,3.9-3c0-2.1-1.4-3-3.9-3h-1V435.9z"/>
	<path class="st1" d="M379.8,447.8l-4.2,0.3v-22.3h6.3c5,0,7.1,4.1,7.1,6.9c0,4.5-3.1,7.2-7.5,7.2c-0.6,0-1.1,0-1.7-0.1V447.8z
		 M379.8,435.9h1c2.5,0,3.9-0.9,3.9-3c0-2.1-1.4-3-3.9-3h-1V435.9z"/>
	<path class="st1" d="M408.3,425.2c6.3,0,11.6,5.1,11.6,11.5c0,6.4-5.3,11.5-11.6,11.5c-6.3,0-11.6-5.1-11.6-11.5
		C396.7,430.4,402,425.2,408.3,425.2 M408.3,443.9c3.9,0,7.2-3.3,7.2-7.2c0-3.9-3.3-7.2-7.2-7.2c-3.9,0-7.2,3.3-7.2,7.2
		C401.1,440.7,404.4,443.9,408.3,443.9"/>
	<path class="st1" d="M429.4,425.7h7.1c4.2,0,7.6,2.1,7.6,6.8c0,2.7-1.6,4.9-4.2,5.8l6,8.9l-4.6,1.1l-7.5-11.5h-0.1v11l-4.2,0.3
		V425.7z M433.6,435.7h1.5c2.1,0,4.1-0.6,4.1-3.1c0-2.5-1.9-2.8-4-2.8h-1.6V435.7z"/>
	<polygon class="st1" points="452.6,425.7 467.3,425.7 467.3,429.8 461.8,429.8 461.8,447.8 457.6,448 457.6,429.8 451.6,429.8 	"/>
	<path class="st1" d="M491.3,425.2v15.9c0,4-3,7.2-8,7.2c-3.8,0-7.7-2.1-7.7-7.8v-14.8l4.2-0.5v14.7c0,1.9,0.3,4.3,3.7,4.3
		c3,0,3.5-2,3.5-4.6v-13.8L491.3,425.2z"/>
	<polygon class="st1" points="501.9,448.3 501.9,425.2 502,425.2 515.1,438.6 515.1,425.7 519.4,425.2 519.4,448.3 519.3,448.3 
		506.1,435.1 506.1,447.8 	"/>
	<polygon class="st1" points="530.2,448 530.2,425.7 534.4,425.2 534.4,447.8 	"/>
	<polygon class="st1" points="543.7,425.7 558.4,425.7 558.4,429.8 553,429.8 553,447.8 548.7,448 548.7,429.8 542.7,429.8 	"/>
	<polygon class="st1" points="567,448 567,425.7 571.2,425.2 571.2,447.8 	"/>
	<polygon class="st1" points="582.1,447.8 582.1,425.7 593.9,425.7 594.6,429.8 586.3,429.8 586.3,434.2 593,434.2 593,438.3 
		586.3,438.3 586.3,443.7 595.6,443.7 594.3,447.8 	"/>
	<path class="st1" d="M606.2,441.8c1.1,1.2,1.9,2.4,4.2,2.4c1.5,0,2.8-1.2,2.8-2.5c0-4.4-9.6-1.9-9.6-9.7c0-4.2,3.1-6.7,7.5-6.7
		c2.2,0,4.8,1.2,6.2,3l-2.6,3.1c-1-1.1-2.6-2-3.8-2c-1.5,0-2.8,0.6-2.8,2.7c0,3.8,9.6,1.1,9.6,9.7c0,4-3.3,6.6-7.5,6.6
		c-2.8,0-5.1-1.2-6.9-3.4L606.2,441.8z"/>
</g>
</svg>
